<svg width="159" height="186" viewBox="0 0 159 186" fill="none" xmlns="http://www.w3.org/2000/svg">
<path d="M159 106.01C159 149.918 123.408 185.51 79.5 185.51C35.5923 185.51 0 149.918 0 106.01C0 80.562 11.9574 57.9046 30.5625 43.3556C30.3248 45.3032 30.2059 47.2852 30.2059 49.2941C30.2059 57.2184 33.9247 67.3279 39.3225 77.8132C33.7176 85.7873 30.4283 95.5097 30.4283 106.01C30.4283 133.115 52.3572 155.082 79.5 155.082C106.643 155.082 128.572 133.153 128.572 106.01C128.572 95.4943 125.271 85.749 119.639 77.7633C125.056 67.2934 128.79 57.2069 128.79 49.2941C128.79 47.2814 128.671 45.2993 128.434 43.3518C147.039 57.9008 159 80.562 159 106.01Z" fill="#31006E"/>
<path d="M86.3635 128.788L86.3657 128.786C94.68 118.378 109.747 98.5826 119.751 79.706C124.7 87.262 127.572 96.2992 127.572 106.01C127.572 132.6 106.053 154.082 79.5002 154.082C52.9481 154.082 31.4285 132.562 31.4285 106.01C31.4285 96.3169 34.2886 87.3036 39.2109 79.7609C49.1687 98.6193 64.1805 118.387 72.6382 128.79C76.1942 133.212 82.8049 133.211 86.3635 128.788Z" fill="#31006E" stroke="white" stroke-width="2"/>
<path d="M130.654 45.2553C130.642 45.1352 130.626 45.0152 130.614 44.8951C127.402 19.5781 105.861 0 79.7844 0C53.7079 0 32.1588 19.5781 28.9505 44.8991C28.9386 45.0192 28.9226 45.1392 28.9107 45.2593C28.6636 47.2923 28.54 49.3614 28.54 51.4585C28.54 59.7307 32.4059 70.2842 38.0173 81.2298C48.2997 101.28 64.4485 122.659 73.4595 133.789C76.7395 137.887 82.8252 137.887 86.1092 133.789C94.9728 122.647 111.181 101.244 121.512 81.1778C127.143 70.2482 131.025 59.7187 131.025 51.4585C131.025 49.3574 130.901 47.2883 130.654 45.2553Z" fill="url(#paint0_linear_81_185)"/>
<defs>
<linearGradient id="paint0_linear_81_185" x1="79.7824" y1="0" x2="79.7824" y2="136.862" gradientUnits="userSpaceOnUse">
<stop stop-color="#FFA73E"/>
<stop offset="0.848958" stop-color="#CC6F00"/>
</linearGradient>
</defs>
</svg>
